<svg width="40" height="41" fill="none" xmlns="http://www.w3.org/2000/svg"><g clip-path="url(#clip0_2_11)"><path fill-rule="evenodd" clip-rule="evenodd" d="M0 20.09c0-11 9-20 20-20s20 9 20 20-9 20-20 20-20-9-20-20zm2 0c0 9.9 8.1 18 18 18s18-8.1 18-18-8.1-18-18-18-18 8.1-18 18zm19 7.8l7.1-7.2c.2-.1.7-.1.9.1.2.2.2.5 0 .7l-8 8c-.05 0-.075.025-.1.05-.025.025-.05.05-.1.05h-.4c-.1 0-.2-.1-.2-.1l-8-8c-.2-.2-.2-.5 0-.7.2-.2.5-.2.7 0l7.1 7.1v-16.8c0-.3.2-.5.5-.5s.5.2.5.5v16.8z" fill="#fff"/></g><defs><clipPath id="clip0_2_11"><path fill="#fff" transform="translate(0 .09)" d="M0 0h40v40H0z"/></clipPath></defs></svg>