<svg width="72" height="62" fill="none" xmlns="http://www.w3.org/2000/svg"><g clip-path="url(#clip0_2_53)"><path fill-rule="evenodd" clip-rule="evenodd" d="M12.556 4.238c-.2 0-.3 0-.4-.1L9.355 1.236c-.2-.2-.2-.5 0-.7.2-.1.5-.1.8.1l2.802 2.801c.2.2.2.5 0 .7-.1.1-.2.1-.4.1zm2.802 0c.1 0 .3 0 .4-.1l2.802-2.802c.2-.2.2-.5 0-.7-.2-.2-.5-.2-.7 0l-2.902 2.801c-.2.2-.2.5 0 .7.1.1.3.1.4.1zm35.118 15.208a6.96 6.96 0 007.004-7.004 6.96 6.96 0 00-7.004-7.004 6.96 6.96 0 00-7.004 7.004 6.96 6.96 0 007.004 7.004zm0-13.007c3.302 0 6.003 2.702 6.003 6.003 0 3.302-2.701 6.004-6.003 6.004-3.301 0-6.003-2.702-6.003-6.004 0-3.301 2.702-6.003 6.003-6.003zm20.31 8.105c-1.4-1.301-3.501-1.501-5.202-.3l-8.205 6.403c-4.102 2.802-9.604 2.802-13.707 0l-8.504-6.504c-1-.7-2.201-.9-3.302-.6-1.1.3-2.1 1.1-2.601 2.201-.8 1.701-.1 3.902 1.5 5.003.029 0 .515.364 1.29.942 1.979 1.48 5.839 4.364 8.716 6.162 1.6 1 2.601 2.802 2.601 4.703v22.913H36.37V28.952c0-.3-.2-.5-.5-.5h-8.005c-.3 0-.5.2-.5.5v26.515h-2.001V33.955c0-.3-.2-.5-.5-.5h-8.005c-.3 0-.5.2-.5.5v21.512h-2v-16.51c0-.3-.2-.5-.501-.5H5.953c-.3 0-.5.2-.5.5v16.51H.95c-.3 0-.5.2-.5.5s.2.5.5.5h68.036c.3 0 .5-.2.5-.5s-.2-.5-.5-.5H57.479V32.654a5.588 5.588 0 012.602-4.703c4.102-2.501 10.105-7.104 10.205-7.204 1-.7 1.601-1.8 1.701-3.002.1-1.2-.4-2.3-1.2-3.201zM6.454 55.467v-16.01h7.004v16.01H6.453zm11.006 0V34.455h7.003v21.012H17.46zm11.006 0V29.452h7.003v26.015h-7.004zm41.22-35.52c-.025 0-.443.317-1.12.832-1.927 1.464-5.949 4.52-8.984 6.372-1.901 1.2-3.102 3.302-3.102 5.503v22.813h-5.503v-15.51c0-.3-.2-.5-.5-.5s-.5.2-.5.5v15.51h-5.503V32.554c0-2.202-1.2-4.303-3.102-5.503-4.002-2.502-9.905-7.004-10.005-7.104-1.3-.9-1.8-2.502-1.2-3.802.4-.801 1.1-1.401 1.9-1.701.9-.2 1.801-.1 2.502.4l8.504 6.503c4.402 3.102 10.405 3.002 14.808 0l8.204-6.403c1.2-.9 2.901-.8 3.902.2.7.6 1 1.5.9 2.401-.1.9-.5 1.901-1.2 2.402zM14.959 60.469h40.02c.3 0 .5.2.5.5s-.2.5-.5.5h-40.02c-.3 0-.5-.2-.5-.5s.2-.5.5-.5zM10.055 9.841c-.1.1-.3.1-.4.1-.1 0-.2-.1-.3-.2-.2-.2-.2-.5 0-.7l2.801-2.702c.2-.2.5-.2.7 0 .2.2.2.5 0 .7l-2.8 2.802zm7.804-.1c.1.1.2.1.4.1s.3 0 .4-.1c.2-.2.2-.5 0-.7l-2.8-2.802c-.2-.2-.501-.2-.701 0-.2.2-.2.5 0 .7l2.701 2.802zM6.153 25.049c.1 0 .3 0 .4-.1l2.802-2.801c.2-.2.2-.5 0-.7-.2-.2-.5-.2-.7 0l-2.802 2.801c-.2.2-.2.5 0 .7 0 0 .1.1.3.1zm-2.501 2.702L.85 30.553c-.1.1-.1.1-.3.1-.2 0-.3 0-.4-.1-.2-.2-.2-.5 0-.7l2.802-2.802c.2-.2.5-.2.7 0 .2.2.2.5 0 .7zm4.902 2.802c.1.1.2.1.4.1s.3 0 .4-.1c.2-.2.2-.5 0-.7l-2.8-2.802c-.2-.2-.5-.2-.701 0-.2.2-.2.5 0 .7l2.701 2.802zm-5.202-5.604c-.2 0-.3 0-.4-.1L.25 22.048c-.2-.2-.2-.5 0-.7.2-.2.5-.2.7 0l2.802 2.801c.2.2.2.5 0 .7-.1.1-.3.1-.4.1z" fill="#257529"/></g><defs><clipPath id="clip0_2_53"><path fill="#fff" transform="translate(0 .47)" d="M0 0h72v61H0z"/></clipPath></defs></svg>