<svg width="41" height="41" fill="none" xmlns="http://www.w3.org/2000/svg"><g clip-path="url(#clip0_7_3906)"><g clip-path="url(#clip1_7_3906)" fill="#257529"><path d="M39 13.8c-.2-.5-.7-.8-1.3-.6-.5.2-.8.7-.6 1.3.6 1.8.9 3.6.9 5.5 0 9.9-8.1 18-18 18S2 29.8 2 19.9c0-9.9 8.1-18 18-18 3.6 0 7 1 10 3 .5.3 1.1.2 1.4-.3.3-.5.2-1.1-.3-1.4C27.8 1.1 24-.1 20-.1c-11 0-20 9-20 20s9 20 20 20 20-9 20-20c0-2.1-.3-4.1-1-6.1z" fill-opacity=".2"/><path d="M11.9 17c-.2-.2-.5-.2-.7 0-.2.2-.2.5 0 .7l9 9c.1.1.2.1.4.1.1 0 .3-.1.4-.2l19-22c.2-.2.2-.5-.1-.7-.2-.2-.5-.2-.7.1L20.5 25.7 11.9 17z"/></g></g><defs><clipPath id="clip0_7_3906"><path fill="#fff" transform="translate(0 .09)" d="M0 0h41v40H0z"/></clipPath><clipPath id="clip1_7_3906"><path fill="#fff" transform="translate(0 -.1)" d="M0 0h41v40H0z"/></clipPath></defs></svg>