<svg width="92" height="40" fill="none" xmlns="http://www.w3.org/2000/svg"><path d="M.391 1.086C.283 1.373.248 9.019.283 18.1l.108 16.512 1.185.108c.754.072 1.148.323 1.148.682 0 1.651 2.298 3.697 4.236 3.697 1.508 0 3.41-1.4 3.877-2.872.503-1.471.933-1.507 1.292-.107.61 2.405 3.805 3.697 5.96 2.44 1.112-.681 2.225-2.26 2.225-3.194 0-1.005.538-.61 1.005.682.251.646.969 1.651 1.615 2.19 2.118 1.759 5.385.646 6.426-2.262l.43-1.184h27.425l.431 1.112c.574 1.364 2.297 2.477 3.77 2.477 1.471 0 3.41-1.256 3.876-2.513.43-1.148 1.328-1.471 1.328-.502 0 .323.539 1.113 1.22 1.795.934.933 1.508 1.22 2.55 1.22 1.722 0 3.266-.933 3.948-2.405.718-1.472 1.041-1.472 1.615-.072.61 1.436 2.298 2.477 4.093 2.477 1.076 0 1.615-.251 2.584-1.22.682-.682 1.22-1.472 1.22-1.76 0-.322.503-.61 1.365-.789 1.974-.359 4.2-1.795 5.169-3.302.682-1.113.825-1.831.79-4.057-.037-4.918-.324-5.312-11.882-16.476L69.169 1.014 34.888.799C5.524.619.57.655.39 1.086zm70.285 4.99l2.585 2.476-4.38.036c-3.553 0-4.415.108-4.415.503 0 .287.79 2.728 1.76 5.492l1.758 4.954 8.364.107 8.4.072 1.508 1.508c.861.825 1.543 1.723 1.543 1.974 0 .395-7.969.467-42.286.467-23.26 0-42.394-.072-42.465-.144-.072-.072-.108-4.595-.036-10.051l.107-9.907h64.937l2.62 2.512zm17.985 21.609c-.036 1.544-.826 2.872-2.19 3.77-.933.61-3.41.645-42.214.645H3.012l.036-2.8c0-1.507 0-2.835.035-2.943 0-.108 19.277-.144 42.825-.108l42.789.108-.036 1.328z" fill="#257529"/><path d="M6.673 14.152v4.487h5.779l-.107-4.415-.108-4.38-2.764-.107-2.8-.108v4.523zm8.257 0v4.487h5.779l-.108-4.415-.108-4.38-2.764-.107-2.8-.108v4.523zm8.256 0v4.487h5.743V9.665h-5.743v4.487zm8.256 0v4.487h5.743V9.665h-5.743v4.487zm8.256 0v4.487h5.743V9.665h-5.743v4.487z" fill="#257529"/></svg>