<svg width="100" height="42" fill="none" xmlns="http://www.w3.org/2000/svg"><path d="M24.517 6.281l-7.323 5.851-6.46.18-6.462.18-2.154 3.732L0 19.959l1.185 4.702c.682 2.585 1.435 5.241 1.687 5.851l.466 1.185h5.134c2.835 0 5.312-.144 5.528-.287.215-.144.718-1.005 1.112-1.903 1.58-3.59 5.062-5.815 9.046-5.78 2.8.037 4.523.683 6.57 2.514 1.974 1.759 3.158 4.343 3.158 6.892 0 1.113.18 2.19.431 2.44.61.611 33.348.611 33.958 0 .251-.25.43-1.184.43-2.081 0-7.215 7.647-12.026 14.108-8.867 2.19 1.113 3.446 2.405 4.918 5.17l.898 1.722 3.59.108c1.973.036 3.768-.036 3.984-.18.574-.394 3.769-12.67 3.446-13.21-.144-.25-1.364-1.435-2.693-2.692l-2.44-2.261-12.277-1.149-12.277-1.184-5.025-5.241L59.91.466H31.84L24.517 6.28zm38.194.898c2.298 2.333 4.523 4.666 4.99 5.24.933 1.041.574 1.006 12.492 2.047 2.261.215 4.63.466 5.205.538.61.072 2.584.251 4.45.395 3.196.251 3.483.323 4.668 1.436l1.292 1.184-45.876.036H4.056l.898-1.543.933-1.508 6.03-.108 6.031-.072 7.323-5.886L32.63 3.05l12.994-.035 12.96-.036 4.127 4.2zm33.85 14c-.071.358-.61 2.297-1.148 4.307l-.97 3.697h-4.127l-.79-1.58c-.97-2.081-3.482-4.343-6.03-5.527-1.688-.79-2.585-.934-4.919-.934-2.333 0-3.23.144-4.917.934-3.985 1.83-6.82 5.528-7.395 9.512l-.251 1.723H36.578l-.215-1.795c-.215-1.83-1.22-4.164-2.584-5.994-1.76-2.37-6.498-4.595-9.8-4.595-2.082 0-5.78 1.4-7.646 2.908-1.041.79-2.333 2.261-2.944 3.41l-1.112 1.974-3.626-.108-3.625-.107-.97-3.59c-.538-1.974-1.005-3.877-1.005-4.236-.036-.574 2.441-.61 46.845-.61 44.44 0 46.845.036 46.666.61z" fill="#257529"/><path d="M30.369 7.86a858.666 858.666 0 00-4.38 3.985l-.897.826h19.6l-.108-3.877-.108-3.841-5.313-.108-5.277-.107L30.37 7.86zm16.441.862v3.949h17.265l-.646-.826c-.359-.43-1.83-2.225-3.302-3.948l-2.62-3.123H46.808v3.948zm-14.719 6.821c0 .646.252.717 2.513.717s2.513-.071 2.513-.718c0-.646-.252-.717-2.513-.717s-2.513.071-2.513.718zm19.385 0c0 .646.25.717 2.692.717 2.44 0 2.692-.071 2.692-.718 0-.646-.251-.717-2.692-.717-2.441 0-2.692.071-2.692.718zM20.245 26.096c-3.266 1.651-5.061 5.528-4.271 9.154.825 3.84 4.128 6.497 8.04 6.497 8.975 0 11.703-11.738 3.698-15.83-1.939-.97-5.349-.898-7.467.18zm6.82 2.441c2.047 1.4 2.693 2.585 2.693 4.954 0 1.58-.18 2.369-.754 3.123-2.44 3.302-6.425 3.553-9.153.574-3.375-3.59-.647-9.44 4.379-9.44 1.113 0 2.046.25 2.836.789z" fill="#257529"/><path d="M22.902 30.763c-2.405 1.076-2.369 4.45.072 5.456 2.046.861 4.092-.538 4.092-2.728 0-2.226-2.118-3.59-4.164-2.728zm52.265-4.954c-1.795.79-3.195 2.19-4.164 4.272-2.62 5.492 1.364 11.666 7.502 11.666 4.918 0 8.293-3.374 8.293-8.256 0-3.554-1.795-6.426-4.882-7.682-1.688-.718-5.098-.718-6.749 0zm6.102 2.62c3.734 1.975 4.093 7.323.682 9.764-1.83 1.293-5.097 1.22-6.856-.107-1.58-1.221-2.62-3.662-2.297-5.42.538-2.8 3.015-4.919 5.78-4.919.789 0 2.01.288 2.691.682z" fill="#257529"/><path d="M77.787 30.547c-.466.072-1.148.539-1.543 1.041-1.615 2.046-.251 4.846 2.333 4.846 1.077 0 1.615-.215 2.226-.969 1.974-2.297.071-5.384-3.016-4.918z" fill="#257529"/></svg>