<svg width="91" height="56" fill="none" xmlns="http://www.w3.org/2000/svg"><path d="M20.904.837c-.323.323-.43 2.728-.43 8.615v8.185h-4.452c-2.764 0-4.559.143-4.703.394-.143.18-1.04 4.02-2.01 8.508-.969 4.487-1.83 8.364-1.938 8.58-.108.322-1.113.466-3.339.466-2.19 0-3.338.143-3.59.466-.286.323-.25 1.22.144 3.087 1.077 5.206 3.518 10.087 6.857 13.677l2.333 2.513h34.353c36.758 0 37.01 0 38.589-1.76.825-.932 7.466-18.306 7.322-19.204-.107-.718-.359-.753-7.897-.861-7.753-.072-7.753-.072-8.794.79-.575.466-1.365.933-1.723 1.005-.683.107-.718-.18-.898-4.56l-.18-4.666-4.666-.18-4.666-.179-.18-2.154-.18-2.153-4.379-.108-4.415-.108v-1.328c0-.718-.144-1.507-.287-1.759-.18-.323-1.795-.466-5.097-.538l-4.846-.108-.108-4.846c-.072-3.302-.216-4.918-.539-5.097-.25-.144-1.83-.287-3.553-.287-4.272 0-4.236-.036-4.236 5.779v4.666l-1.687-.107-1.723-.108-.108-8.04c-.036-5.206-.215-8.221-.467-8.544-.538-.61-7.861-.682-8.507-.036zm6.39 9.261v7.18h-4.308V10.35c0-3.841.107-7.072.251-7.18.108-.143 1.077-.251 2.154-.251h1.902v7.18zm11.845 3.23v3.59h-3.23V13.58c0-1.866.107-3.482.25-3.59.108-.143.862-.25 1.616-.25h1.364v3.589zm10.41 8.185c0 .754.18 1.544.431 1.795.287.287 1.795.43 4.487.43h4.056v1.903c0 1.041.18 2.082.431 2.334.287.287 1.903.43 4.846.43h4.415v6.82H39.103c-27.532 0-29.076-.035-28.896-.645.107-.323.753-3.375 1.471-6.713.718-3.374 1.4-6.461 1.508-6.928l.18-.79h36.183v1.364zm37.333 14.682c0 .144-.36 1.185-.79 2.333l-.826 2.082H3.638l-.323-1.184-.288-1.149 35.035-.18 35.035-.179 1.185-1.005c1.184-.97 1.184-.97 6.892-.97 3.123 0 5.708.108 5.708.252zm-3.052 8.256c-2.548 6.749-2.835 7.359-3.733 7.718-.502.18-14.969.323-35.178.323l-34.317-.036-1.724-1.867c-1.615-1.794-4.558-6.963-4.558-8.04 0-.431 6.21-.503 40.204-.503h40.204l-.898 2.405z" fill="#257529"/><path d="M15.089 22.303c0 1.041.072 1.077 1.615 1.077 1.544 0 1.616-.036 1.616-1.077 0-1.04-.072-1.077-1.616-1.077-1.543 0-1.615.036-1.615 1.077zm5.743 0c0 1.041.036 1.077 1.795 1.077 1.76 0 1.795-.036 1.795-1.077 0-1.04-.036-1.077-1.795-1.077s-1.794.036-1.794 1.077zm5.744 0c0 1.041.036 1.077 1.795 1.077s1.795-.036 1.795-1.077c0-1.04-.036-1.077-1.795-1.077-1.76 0-1.795.036-1.795 1.077zm6.102 0c0 1.041.072 1.077 1.616 1.077 1.543 0 1.615-.036 1.615-1.077 0-1.04-.072-1.077-1.615-1.077-1.544 0-1.616.036-1.616 1.077zm5.744 0c0 1.041.071 1.077 1.615 1.077s1.615-.036 1.615-1.077c0-1.04-.072-1.077-1.615-1.077-1.544 0-1.615.036-1.615 1.077zm5.743 0c0 1.041.072 1.077 1.58 1.077 1.471 0 1.579-.072 1.723-1.077.179-1.077.143-1.077-1.58-1.077-1.687 0-1.723.036-1.723 1.077zM15.089 26.97c0 1.04.072 1.077 1.615 1.077 1.544 0 1.616-.036 1.616-1.077s-.072-1.077-1.616-1.077c-1.543 0-1.615.036-1.615 1.077zm5.743 0c0 1.04.036 1.077 1.795 1.077 1.76 0 1.795-.036 1.795-1.077s-.036-1.077-1.795-1.077-1.794.036-1.794 1.077zm5.744 0c0 1.04.036 1.077 1.795 1.077s1.795-.036 1.795-1.077-.036-1.077-1.795-1.077c-1.76 0-1.795.036-1.795 1.077zm6.102 0c0 1.04.072 1.077 1.616 1.077 1.543 0 1.615-.036 1.615-1.077s-.072-1.077-1.615-1.077c-1.544 0-1.616.036-1.616 1.077zm5.744 0c0 1.04.071 1.077 1.615 1.077s1.615-.036 1.615-1.077-.072-1.077-1.615-1.077c-1.544 0-1.615.036-1.615 1.077zm5.743 0c0 1.04.072 1.077 1.58 1.077 1.471 0 1.579-.072 1.723-1.077.179-1.077.143-1.077-1.58-1.077-1.687 0-1.723.036-1.723 1.077zm6.103 0c0 1.04.071 1.077 1.615 1.077 1.04 0 1.615-.144 1.651-.467 0-.215.072-.718.144-1.077.107-.503-.144-.61-1.651-.61-1.724 0-1.76.036-1.76 1.077zM15.16 32.067c.108 1.113.216 1.184 1.652 1.292l1.508.108V32.21c0-1.293 0-1.293-1.652-1.293-1.615 0-1.615 0-1.507 1.149zm5.744 0c.108 1.149.18 1.184 1.723 1.184 1.544 0 1.616-.035 1.723-1.184l.108-1.149h-3.662l.108 1.149zm5.744 0c.107 1.149.18 1.184 1.723 1.184 1.543 0 1.615-.035 1.723-1.184l.107-1.149H26.54l.108 1.149zm6.03.108c0 1.256 0 1.256 1.616 1.256 1.615 0 1.615 0 1.615-1.256 0-1.257 0-1.257-1.615-1.257-1.616 0-1.616 0-1.616 1.257zm5.744 0c0 1.256 0 1.256 1.615 1.256s1.615 0 1.615-1.256c0-1.257 0-1.257-1.615-1.257s-1.615 0-1.615 1.257zm5.815-.108c.107 1.113.215 1.184 1.58 1.292 1.471.108 1.507.072 1.65-1.148l.144-1.293H44.13l.108 1.149zm6.031.108v1.292l1.687-.108c1.615-.108 1.687-.143 1.687-1.184s-.072-1.077-1.687-1.185l-1.687-.108v1.293zm5.994-1.041c-.143.143-.251.718-.251 1.292 0 .97.072 1.005 1.83 1.005h1.795l-.107-1.185c-.108-1.077-.216-1.148-1.544-1.256-.825-.072-1.58 0-1.723.144zm5.636.286c-.503 1.293 0 1.831 1.759 1.94l1.723.107-.108-1.185c-.108-1.112-.18-1.184-1.651-1.292-1.077-.072-1.58.036-1.723.43zM14.227 43.877c-1.902 1.508-.825 4.38 1.652 4.38 2.225 0 3.194-2.621 1.543-4.236-1.077-1.077-1.938-1.113-3.195-.144zm26.169.143c-1.4 1.364-1.149 3.087.574 3.95 2.657 1.399 4.954-2.262 2.62-4.093-1.256-.97-2.117-.933-3.194.143zm27.676-.143c-1.83 1.436-.79 4.38 1.58 4.38 2.297 0 3.302-2.585 1.615-4.236-1.077-1.077-1.939-1.113-3.195-.144z" fill="#257529"/></svg>